<?xml version="1.0" standalone="no"?>
<!DOCTYPE svg PUBLIC "-//W3C//DTD SVG 20010904//EN"
 "http://www.w3.org/TR/2001/REC-SVG-20010904/DTD/svg10.dtd">
<svg version="1.0" xmlns="http://www.w3.org/2000/svg"
 width="1024.000000pt" height="1024.000000pt" viewBox="0 0 1024.000000 1024.000000"
 preserveAspectRatio="xMidYMid meet">
<metadata>
Created by potrace 1.14, written by Peter Selinger 2001-2017
</metadata>
<g transform="translate(0.000000,1024.000000) scale(0.100000,-0.100000)"
fill="#000000" stroke="none">
<path d="M3917 9764 c-1 -1 -40 -5 -87 -9 -71 -5 -197 -25 -332 -50 -140 -27
-404 -122 -578 -209 -529 -265 -964 -725 -1194 -1261 -37 -85 -120 -325 -130
-376 -3 -13 -16 -78 -30 -144 -23 -113 -27 -145 -43 -312 -8 -90 -8 -6303 0
-6369 22 -170 141 -334 301 -413 94 -46 169 -63 263 -60 258 8 468 183 526
436 12 53 14 342 15 1835 0 975 1 1775 1 1778 1 3 742 5 1648 5 907 -1 1672 3
1702 7 274 42 481 291 470 565 -11 266 -209 491 -466 529 -26 4 -792 8 -1700
8 -1463 1 -1653 3 -1654 16 0 8 0 366 -1 795 0 698 3 864 17 915 2 8 6 31 9
50 15 99 77 275 140 394 28 53 102 172 116 186 3 3 23 27 45 54 206 256 555
458 865 501 25 3 59 9 75 12 17 3 831 7 1810 8 1660 1 1784 2 1838 19 97 29
163 65 231 128 184 168 234 427 126 652 -34 70 -116 171 -165 202 -78 49 -128
74 -167 85 -24 6 -52 13 -63 16 -17 5 -3582 11 -3588 7z"/>
<path d="M4000 7742 c-217 -23 -408 -180 -473 -387 -30 -99 -30 -244 2 -337
61 -183 207 -317 401 -369 34 -10 297 -13 1060 -15 558 -1 1036 -4 1062 -8
133 -17 198 -32 321 -72 460 -151 854 -592 951 -1066 8 -40 18 -86 21 -103 21
-94 6 -493 -19 -534 -3 -4 -7 -20 -10 -35 -6 -35 -43 -151 -61 -191 -7 -16
-24 -55 -38 -85 -81 -183 -258 -400 -442 -541 -52 -40 -228 -149 -240 -149 -2
0 -28 -11 -57 -24 -112 -50 -272 -95 -403 -112 -33 -4 -546 -8 -1140 -9 -835
-1 -1094 -4 -1140 -14 -224 -48 -402 -238 -433 -461 -3 -25 -6 -526 -6 -1115
1 -997 2 -1075 19 -1139 39 -153 138 -277 280 -352 324 -171 725 20 798 381 9
44 13 261 12 822 0 420 2 763 5 764 3 0 363 2 800 4 747 3 845 5 952 20 189
27 310 54 478 107 77 25 306 121 370 156 193 106 282 164 430 280 108 85 333
308 400 397 25 33 51 66 58 74 25 26 160 238 205 321 117 218 217 499 263 740
29 156 41 309 39 510 -2 118 -5 226 -8 240 -3 14 -8 48 -11 77 -15 135 -70
361 -124 513 -224 628 -696 1157 -1292 1449 -80 38 -165 78 -190 86 -284 102
-462 145 -720 171 -61 7 -2065 12 -2120 6z"/>
</g>
</svg>
